# xmcd
#
# Track frame offsets:
#	150
#	16827
#	29623
#	45995
#	59590
#	76171
#	97321
#	117343
#	139198
#	157031
#	174214
#	188697
#	205678
#	218313
#	233070
#	251544
#	267418
#	285663
#	300806
#	317848
#	333859
#
# Disc length: 4683 seconds
#
# Revision: 11
# Processed by: cddbd v1.5.2PL0 Copyright (c) Steve Scherf et al.
# Submitted via: dBpowerAMP V4.0
#
DISCID=17124915
DTITLE=Varios - Top of the spot - (2007)
DYEAR=2006
DGENRE=
TTITLE0=Occhi
TTITLE1=Rock Steady
TTITLE2=World, hold on (children of the sky)
TTITLE3=Dancefloor
TTITLE4=Send it on
TTITLE5=Breathe
TTITLE6=Mas que nada
TTITLE7=Love's a game
TTITLE8=The way you move
TTITLE9=Shake break bounce
TTITLE10=Love don't let me go (walking away)
TTITLE11=Shiver
TTITLE12=Eanie Meany 2
TTITLE13=I must not chase the boys
TTITLE14=Calling all angels
TTITLE15=Glorious
TTITLE16=Got none
TTITLE17=Life is wonderful
TTITLE18=You you you
TTITLE19=Reggae merengue (monta and Rossini remix)
TTITLE20=Felicità
EXTD=
EXTT0=
EXTT1=
EXTT2=
EXTT3=
EXTT4=
EXTT5=
EXTT6=
EXTT7=
EXTT8=
EXTT9=
EXTT10=
EXTT11=
EXTT12=
EXTT13=
EXTT14=
EXTT15=
EXTT16=
EXTT17=
EXTT18=
EXTT19=
EXTT20=
PLAYORDER=
